# xmcd CD database file
#
# Track frame offsets:
#	150
#	4853
#	18115
#	34685
#	53253
#	72138
#	86420
#	104713
#	121338
#	134935
#	137788
#	154168
#	166918
#	178505
#	186820
#
# Disc length: 2845 seconds
#
# Revision: 0
# Processed by: cddbd v1.4PL0 Copyright (c) Steve Scherf et al.
# Submitted via: CDex 1.40Release
#
DISCID=c20b1b0f
DTITLE=Kelly Bell Band - Chasing the Sun
DYEAR=2002
DGENRE=Blues
TTITLE0=Chasing the Sun
TTITLE1=Spinnin'
TTITLE2=Rain no more
TTITLE3=Movin' on
TTITLE4=Popstar
TTITLE5=Hey Babe!
TTITLE6=Longtime (glory of Love)
TTITLE7=How Long
TTITLE8=Outside
TTITLE9=Last Words
TTITLE10=Walked right out!
TTITLE11=Same ol' thang..
TTITLE12=Movin' on (acoustic reprise)
TTITLE13=Good for what ails you?
TTITLE14=Going to the Vally
EXTD=YEAR: 2002 ID3G: 0
EXTT0=
EXTT1=
EXTT2=
EXTT3=
EXTT4=
EXTT5=
EXTT6=
EXTT7=
EXTT8=
EXTT9=
EXTT10=
EXTT11=
EXTT12=
EXTT13=
EXTT14=
PLAYORDER=
